<svg width="12" height="16" viewBox="0 0 12 16" fill="none" xmlns="http://www.w3.org/2000/svg">
<path d="M4.83902 16.0005C3.49698 16.0005 2.35501 15.5238 1.41307 14.5705C0.471024 13.6172 0 12.4538 0 11.0805V3.48049C0 2.51381 0.334946 1.69216 1.00488 1.01549C1.67481 0.33882 2.47805 0.000488281 3.41463 0.000488281C4.35122 0.000488281 5.15446 0.33882 5.82439 1.01549C6.49432 1.69216 6.82927 2.51381 6.82927 3.48049V9.80049C6.82927 9.97049 6.7728 10.113 6.6599 10.2279C6.54712 10.343 6.4073 10.4005 6.24039 10.4005C6.07364 10.4005 5.93495 10.343 5.82439 10.2279C5.71383 10.113 5.65854 9.97049 5.65854 9.80049V3.48049C5.65854 2.84049 5.44066 2.30049 5.00488 1.86049C4.56909 1.42049 4.03766 1.20049 3.41054 1.20049C2.78341 1.20049 2.25335 1.42089 1.82029 1.86169C1.38724 2.30249 1.17073 2.84209 1.17073 3.48049V11.0805C1.17073 12.1205 1.52827 13.0005 2.24332 13.7205C2.95836 14.4405 3.82361 14.8005 4.83902 14.8005C5.17725 14.8005 5.50568 14.7572 5.82439 14.6705C6.1431 14.5838 6.43902 14.4538 6.7122 14.2805C6.8553 14.1872 7.00164 14.1605 7.15122 14.2005C7.3008 14.2405 7.42115 14.3338 7.51219 14.4805C7.60324 14.6272 7.62927 14.7772 7.59024 14.9305C7.55122 15.0838 7.46018 15.2072 7.31707 15.3005C6.95286 15.5272 6.56261 15.7005 6.14634 15.8205C5.73007 15.9405 5.29432 16.0005 4.83902 16.0005ZM9.07317 15.2005C8.90732 15.2005 8.76831 15.1438 8.65619 15.0305C8.54392 14.9172 8.4878 14.7738 8.4878 14.6005V12.8005H6.73171C6.56585 12.8005 6.42685 12.7426 6.31473 12.6269C6.20246 12.5113 6.14634 12.368 6.14634 12.1969C6.14634 12.026 6.20246 11.8838 6.31473 11.7705C6.42685 11.6572 6.56585 11.6005 6.73171 11.6005H8.4878V9.80049C8.4878 9.63049 8.54427 9.48797 8.65717 9.37289C8.76995 9.25797 8.90977 9.20049 9.07668 9.20049C9.24343 9.20049 9.38213 9.25797 9.49268 9.37289C9.60324 9.48797 9.65854 9.63049 9.65854 9.80049V11.6005H11.4146C11.5805 11.6005 11.7195 11.6584 11.8318 11.7741C11.9439 11.8897 12 12.033 12 12.2041C12 12.375 11.9439 12.5172 11.8318 12.6305C11.7195 12.7438 11.5805 12.8005 11.4146 12.8005H9.65854V14.6005C9.65854 14.7605 9.60246 14.9005 9.49034 15.0205C9.37807 15.1405 9.23902 15.2005 9.07317 15.2005ZM3.41112 12.2005C3.24437 12.2005 3.10568 12.143 2.99512 12.0279C2.88457 11.913 2.82927 11.7705 2.82927 11.6005V3.88049C2.82927 3.71049 2.88574 3.56797 2.99863 3.45289C3.11141 3.33797 3.25124 3.28049 3.41815 3.28049C3.5849 3.28049 3.72359 3.33797 3.83415 3.45289C3.9447 3.56797 4 3.71049 4 3.88049V11.6005C4 11.7705 3.94353 11.913 3.83063 12.0279C3.71785 12.143 3.57803 12.2005 3.41112 12.2005ZM9.06966 8.00049C8.90291 8.00049 8.76421 7.94297 8.65366 7.82789C8.5431 7.71297 8.4878 7.57049 8.4878 7.40049V3.88049C8.4878 3.71049 8.54427 3.56797 8.65717 3.45289C8.76995 3.33797 8.90977 3.28049 9.07668 3.28049C9.24343 3.28049 9.38213 3.33797 9.49268 3.45289C9.60324 3.56797 9.65854 3.71049 9.65854 3.88049V7.40049C9.65854 7.57049 9.60207 7.71297 9.48917 7.82789C9.37639 7.94297 9.23657 8.00049 9.06966 8.00049Z" fill="#1E7CB4"/>
</svg>
