<svg width="14" height="16" viewBox="0 0 14 16" fill="none" xmlns="http://www.w3.org/2000/svg">
<path d="M2.20938 16C1.84844 16 1.53948 15.8694 1.28253 15.6082C1.02541 15.3472 0.896875 15.0333 0.896875 14.6667V2H0.65625C0.470313 2 0.314488 1.93569 0.188781 1.80711C0.0629258 1.67867 0 1.51941 0 1.32933C0 1.13941 0.0629258 0.98148 0.188781 0.855556C0.314488 0.729631 0.470313 0.666667 0.65625 0.666667H4.1125C4.1125 0.474076 4.17541 0.314813 4.30128 0.188889C4.42697 0.0629645 4.58281 0 4.76875 0H9.23125C9.41719 0 9.57307 0.0638534 9.69894 0.191556C9.82463 0.319409 9.8875 0.477778 9.8875 0.666667H13.3438C13.5297 0.666667 13.6856 0.730964 13.8114 0.859556C13.9371 0.988 14 1.14726 14 1.33733C14 1.52726 13.9371 1.68519 13.8114 1.81111C13.6856 1.93702 13.5297 2 13.3438 2H13.1031V14.6667C13.1031 15.0333 12.9746 15.3472 12.7177 15.6082C12.4606 15.8694 12.1516 16 11.7906 16H2.20938ZM11.7906 2H2.20938V14.6667H11.7906V2ZM5.18831 12.7556C5.37526 12.7556 5.53074 12.6916 5.65469 12.5638C5.77863 12.4361 5.84063 12.2778 5.84063 12.0889V4.55556C5.84063 4.36667 5.77732 4.20831 5.65075 4.08044C5.52431 3.95276 5.36756 3.88889 5.18044 3.88889C4.99349 3.88889 4.83801 3.95276 4.71406 4.08044C4.59012 4.20831 4.52813 4.36667 4.52813 4.55556V12.0889C4.52813 12.2778 4.59143 12.4361 4.718 12.5638C4.84444 12.6916 5.00119 12.7556 5.18831 12.7556ZM8.81956 12.7556C9.00651 12.7556 9.16199 12.6916 9.28594 12.5638C9.40988 12.4361 9.47188 12.2778 9.47188 12.0889V4.55556C9.47188 4.36667 9.40857 4.20831 9.282 4.08044C9.15556 3.95276 8.99881 3.88889 8.81169 3.88889C8.62474 3.88889 8.46926 3.95276 8.34531 4.08044C8.22137 4.20831 8.15938 4.36667 8.15938 4.55556V12.0889C8.15938 12.2778 8.22268 12.4361 8.34925 12.5638C8.47569 12.6916 8.63244 12.7556 8.81956 12.7556Z" fill="#DC3545"/>
</svg>
