<svg width="17" height="19" viewBox="0 0 17 19" fill="none" xmlns="http://www.w3.org/2000/svg">
<path d="M2.00033 18.5C1.64477 18.5 1.33366 18.365 1.06699 18.095C0.800326 17.825 0.666992 17.51 0.666992 17.15V3.2C0.666992 2.84 0.800326 2.525 1.06699 2.255C1.33366 1.985 1.64477 1.85 2.00033 1.85H3.44477V1.22C3.44477 1.016 3.5129 0.845002 3.64921 0.707C3.78553 0.568999 3.95441 0.5 4.15588 0.5C4.36357 0.5 4.53775 0.568999 4.67833 0.707C4.8189 0.845002 4.88921 1.016 4.88921 1.22V1.85H12.4448V1.22C12.4448 1.016 12.5129 0.845002 12.6492 0.707C12.7855 0.568999 12.9544 0.5 13.1559 0.5C13.3637 0.5 13.5379 0.568999 13.6783 0.707C13.8189 0.845002 13.8892 1.016 13.8892 1.22V1.85H15.3337C15.6892 1.85 16.0003 1.985 16.267 2.255C16.5337 2.525 16.667 2.84 16.667 3.2V17.15C16.667 17.51 16.5337 17.825 16.267 18.095C16.0003 18.365 15.6892 18.5 15.3337 18.5H2.00033ZM2.00033 17.15H15.3337V7.475H2.00033V17.15ZM2.00033 6.125H15.3337V3.2H2.00033V6.125ZM8.66699 11.3C8.41513 11.3 8.20401 11.2137 8.03366 11.0412C7.8633 10.8688 7.7781 10.655 7.7781 10.4C7.7781 10.145 7.8633 9.93124 8.03366 9.75875C8.20401 9.58627 8.41513 9.5 8.66699 9.5C8.91886 9.5 9.12997 9.58627 9.30033 9.75875C9.47068 9.93124 9.55588 10.145 9.55588 10.4C9.55588 10.655 9.47068 10.8688 9.30033 11.0412C9.12997 11.2137 8.91886 11.3 8.66699 11.3ZM5.11144 11.3C4.85957 11.3 4.64846 11.2137 4.4781 11.0412C4.30775 10.8688 4.22255 10.655 4.22255 10.4C4.22255 10.145 4.30775 9.93124 4.4781 9.75875C4.64846 9.58627 4.85957 9.5 5.11144 9.5C5.3633 9.5 5.57441 9.58627 5.74477 9.75875C5.91513 9.93124 6.00033 10.145 6.00033 10.4C6.00033 10.655 5.91513 10.8688 5.74477 11.0412C5.57441 11.2137 5.3633 11.3 5.11144 11.3ZM12.2225 11.3C11.9707 11.3 11.7596 11.2137 11.5892 11.0412C11.4189 10.8688 11.3337 10.655 11.3337 10.4C11.3337 10.145 11.4189 9.93124 11.5892 9.75875C11.7596 9.58627 11.9707 9.5 12.2225 9.5C12.4744 9.5 12.6855 9.58627 12.8559 9.75875C13.0262 9.93124 13.1114 10.145 13.1114 10.4C13.1114 10.655 13.0262 10.8688 12.8559 11.0412C12.6855 11.2137 12.4744 11.3 12.2225 11.3ZM8.66699 14.9C8.41513 14.9 8.20401 14.8137 8.03366 14.6412C7.8633 14.4688 7.7781 14.255 7.7781 14C7.7781 13.745 7.8633 13.5312 8.03366 13.3588C8.20401 13.1863 8.41513 13.1 8.66699 13.1C8.91886 13.1 9.12997 13.1863 9.30033 13.3588C9.47068 13.5312 9.55588 13.745 9.55588 14C9.55588 14.255 9.47068 14.4688 9.30033 14.6412C9.12997 14.8137 8.91886 14.9 8.66699 14.9ZM5.11144 14.9C4.85957 14.9 4.64846 14.8137 4.4781 14.6412C4.30775 14.4688 4.22255 14.255 4.22255 14C4.22255 13.745 4.30775 13.5312 4.4781 13.3588C4.64846 13.1863 4.85957 13.1 5.11144 13.1C5.3633 13.1 5.57441 13.1863 5.74477 13.3588C5.91513 13.5312 6.00033 13.745 6.00033 14C6.00033 14.255 5.91513 14.4688 5.74477 14.6412C5.57441 14.8137 5.3633 14.9 5.11144 14.9ZM12.2225 14.9C11.9707 14.9 11.7596 14.8137 11.5892 14.6412C11.4189 14.4688 11.3337 14.255 11.3337 14C11.3337 13.745 11.4189 13.5312 11.5892 13.3588C11.7596 13.1863 11.9707 13.1 12.2225 13.1C12.4744 13.1 12.6855 13.1863 12.8559 13.3588C13.0262 13.5312 13.1114 13.745 13.1114 14C13.1114 14.255 13.0262 14.4688 12.8559 14.6412C12.6855 14.8137 12.4744 14.9 12.2225 14.9Z" fill="#8DA5B5"/>
</svg>
