<svg width="16" height="12" viewBox="0 0 16 12" fill="none" xmlns="http://www.w3.org/2000/svg">
<path d="M0 10.1391C0 9.72585 0.108597 9.3509 0.325792 9.01434C0.542986 8.67779 0.844648 8.42686 1.23077 8.26152C2.11162 7.88366 2.90498 7.61205 3.61086 7.44671C4.31674 7.28141 5.04373 7.19872 5.79186 7.19872C6.53998 7.19872 7.26396 7.28141 7.9638 7.44671C8.66364 7.61205 9.45401 7.88366 10.3348 8.26152C10.721 8.42686 11.0256 8.67779 11.2489 9.01434C11.4721 9.3509 11.5837 9.72585 11.5837 10.1391V10.7414C11.5837 11.0337 11.4774 11.2839 11.2648 11.4919C11.0521 11.7001 10.7964 11.8042 10.4977 11.8042H1.08597C0.78733 11.8042 0.531707 11.7001 0.319095 11.4919C0.106367 11.2839 0 11.0337 0 10.7414V10.1391ZM14.914 11.8042H12.4163C12.4766 11.6271 12.5339 11.4529 12.5882 11.2817C12.6425 11.1104 12.6697 10.9304 12.6697 10.7414V10.1391C12.6697 9.39518 12.4947 8.7959 12.1448 8.34123C11.7949 7.8866 11.27 7.50576 10.5701 7.19872C11.4027 7.2932 12.187 7.42311 12.9231 7.58842C13.6591 7.75375 14.2564 7.95452 14.7149 8.19067C15.1131 8.41506 15.4269 8.69256 15.6561 9.0232C15.8854 9.35387 16 9.72585 16 10.1391V10.7414C16 11.0337 15.8937 11.2839 15.6811 11.4919C15.4683 11.7001 15.2127 11.8042 14.914 11.8042ZM5.79186 6.11821C4.99548 6.11821 4.34389 5.87022 3.8371 5.37424C3.33032 4.87827 3.07692 4.24059 3.07692 3.4612C3.07692 2.68181 3.33032 2.04413 3.8371 1.54815C4.34389 1.05219 4.99548 0.804199 5.79186 0.804199C6.58824 0.804199 7.23982 1.05219 7.74661 1.54815C8.25339 2.04413 8.50679 2.68181 8.50679 3.4612C8.50679 4.24059 8.25339 4.87827 7.74661 5.37424C7.23982 5.87022 6.58824 6.11821 5.79186 6.11821ZM12.3077 3.4612C12.3077 4.24059 12.0543 4.87827 11.5475 5.37424C11.0407 5.87022 10.3891 6.11821 9.59276 6.11821C9.46002 6.11821 9.31222 6.10935 9.14932 6.09164C8.98643 6.07392 8.83862 6.04147 8.70588 5.99421C8.99547 5.699 9.21567 5.33588 9.36652 4.90484C9.51736 4.47384 9.59276 3.9926 9.59276 3.4612C9.59276 2.9298 9.51736 2.46039 9.36652 2.05299C9.21567 1.64558 8.99547 1.27066 8.70588 0.928193C8.83862 0.892766 8.98643 0.863245 9.14932 0.839626C9.31222 0.816007 9.46002 0.804199 9.59276 0.804199C10.3891 0.804199 11.0407 1.05219 11.5475 1.54815C12.0543 2.04413 12.3077 2.68181 12.3077 3.4612ZM1.08597 10.7414H10.4977V10.1391C10.4977 9.95021 10.4404 9.76716 10.3258 9.59003C10.2111 9.41289 10.0694 9.2889 9.90045 9.21805C9.03167 8.84019 8.30165 8.58628 7.71041 8.45637C7.11917 8.3265 6.47964 8.26152 5.79186 8.26152C5.10407 8.26152 4.46154 8.3265 3.86425 8.45637C3.26697 8.58628 2.53394 8.84019 1.66516 9.21805C1.49623 9.2889 1.35747 9.41289 1.24887 9.59003C1.14027 9.76716 1.08597 9.95021 1.08597 10.1391V10.7414ZM5.79186 5.0554C6.26244 5.0554 6.65158 4.90484 6.95928 4.60371C7.26697 4.30258 7.42081 3.92175 7.42081 3.4612C7.42081 3.00065 7.26697 2.61981 6.95928 2.31869C6.65158 2.01756 6.26244 1.86699 5.79186 1.86699C5.32127 1.86699 4.93213 2.01756 4.62443 2.31869C4.31674 2.61981 4.1629 3.00065 4.1629 3.4612C4.1629 3.92175 4.31674 4.30258 4.62443 4.60371C4.93213 4.90484 5.32127 5.0554 5.79186 5.0554Z" fill="#1E7CB4"/>
</svg>
