<svg width="12" height="12" viewBox="0 0 12 12" fill="none" xmlns="http://www.w3.org/2000/svg">
<path d="M6 6.96552L1.17241 11.7931C1.03448 11.931 0.873563 12 0.689655 12C0.505747 12 0.344828 11.931 0.206896 11.7931C0.0689654 11.6552 0 11.4943 0 11.3103C0 11.1264 0.0689654 10.9655 0.206896 10.8276L5.03448 6L0.206896 1.17241C0.0689654 1.03448 0 0.873563 0 0.689655C0 0.505747 0.0689654 0.344827 0.206896 0.206896C0.344828 0.0689654 0.505747 0 0.689655 0C0.873563 0 1.03448 0.0689654 1.17241 0.206896L6 5.03448L10.8276 0.206896C10.9655 0.0689654 11.1264 0 11.3103 0C11.4943 0 11.6552 0.0689654 11.7931 0.206896C11.931 0.344827 12 0.505747 12 0.689655C12 0.873563 11.931 1.03448 11.7931 1.17241L6.96552 6L11.7931 10.8276C11.931 10.9655 12 11.1264 12 11.3103C12 11.4943 11.931 11.6552 11.7931 11.7931C11.6552 11.931 11.4943 12 11.3103 12C11.1264 12 10.9655 11.931 10.8276 11.7931L6 6.96552Z" fill="#8DA5B5"/>
</svg>
