<svg width="16" height="17" viewBox="0 0 16 17" fill="none" xmlns="http://www.w3.org/2000/svg">
<path fill-rule="evenodd" clip-rule="evenodd" d="M2.21544 0.304274L2.1535 0.304237C1.87233 0.303969 1.62996 0.303738 1.41524 0.355289C0.740204 0.517343 0.213144 1.0444 0.05109 1.71944C-0.000461586 1.93416 -0.000230235 2.17653 3.80707e-05 2.4577L7.50712e-05 2.51964V5.47346L3.80707e-05 5.53541C-0.000230235 5.81657 -0.000461586 6.05896 0.05109 6.27366C0.213144 6.9487 0.740204 7.47576 1.41524 7.63783C1.62996 7.68937 1.87233 7.68914 2.1535 7.68887L2.21544 7.68883H5.16926L5.23121 7.68887C5.51237 7.68914 5.75476 7.68937 5.96947 7.63783C6.6445 7.47576 7.17156 6.9487 7.33363 6.27366C7.38517 6.05896 7.38494 5.81657 7.38467 5.53541L7.38463 5.47346V2.51964L7.38467 2.4577C7.38494 2.17653 7.38517 1.93416 7.33363 1.71944C7.17156 1.0444 6.6445 0.517343 5.96947 0.355289C5.75476 0.303738 5.51237 0.303969 5.23121 0.304237L5.16926 0.304274H2.21544ZM1.70256 1.55204C1.75553 1.53932 1.83664 1.53503 2.21544 1.53503H5.16926C5.54808 1.53503 5.62919 1.53932 5.68214 1.55204C5.90716 1.60606 6.08284 1.78174 6.13687 2.00676C6.14959 2.05973 6.15387 2.14084 6.15387 2.51964V5.47346C6.15387 5.85228 6.14959 5.93338 6.13687 5.98634C6.08284 6.21136 5.90716 6.38704 5.68214 6.44107C5.62919 6.45379 5.54808 6.45807 5.16926 6.45807H2.21544C1.83664 6.45807 1.75553 6.45379 1.70256 6.44107C1.47754 6.38704 1.30186 6.21136 1.24784 5.98634C1.23512 5.93338 1.23083 5.85228 1.23083 5.47346V2.51964C1.23083 2.14084 1.23512 2.05973 1.24784 2.00676C1.30186 1.78174 1.47754 1.60606 1.70256 1.55204ZM10.8308 0.304274L10.7688 0.304237C10.4876 0.303969 10.2453 0.303738 10.0306 0.355289C9.35552 0.517343 8.82846 1.0444 8.6664 1.71944C8.61485 1.93416 8.61508 2.17653 8.61535 2.4577L8.61539 2.51964V5.47346L8.61535 5.53541C8.61508 5.81657 8.61485 6.05896 8.6664 6.27366C8.82846 6.9487 9.35552 7.47576 10.0306 7.63783C10.2453 7.68937 10.4876 7.68914 10.7688 7.68887L10.8308 7.68883H13.7846L13.8465 7.68887C14.1277 7.68914 14.37 7.68937 14.5848 7.63783C15.2598 7.47576 15.7869 6.9487 15.949 6.27366C16.0004 6.05896 16.0003 5.81657 15.9999 5.53541V5.47346V2.51964V2.4577C16.0003 2.17653 16.0004 1.93416 15.949 1.71944C15.7869 1.0444 15.2598 0.517343 14.5848 0.355289C14.37 0.303738 14.1277 0.303969 13.8465 0.304237L13.7846 0.304274H10.8308ZM10.3179 1.55204C10.3708 1.53932 10.452 1.53503 10.8308 1.53503H13.7846C14.1634 1.53503 14.2445 1.53932 14.2974 1.55204C14.5224 1.60606 14.6982 1.78174 14.7522 2.00676C14.7649 2.05973 14.7692 2.14084 14.7692 2.51964V5.47346C14.7692 5.85228 14.7649 5.93338 14.7522 5.98634C14.6982 6.21136 14.5224 6.38704 14.2974 6.44107C14.2445 6.45379 14.1634 6.45807 13.7846 6.45807H10.8308C10.452 6.45807 10.3708 6.45379 10.3179 6.44107C10.0929 6.38704 9.91717 6.21136 9.86316 5.98634C9.85043 5.93338 9.84615 5.85228 9.84615 5.47346V2.51964C9.84615 2.14084 9.85043 2.05973 9.86316 2.00676C9.91717 1.78174 10.0929 1.60606 10.3179 1.55204ZM2.1535 8.91955L2.21544 8.91959H5.16926L5.23121 8.91955C5.51237 8.91928 5.75476 8.91905 5.96947 8.9706C6.6445 9.13266 7.17156 9.65972 7.33363 10.3348C7.38517 10.5495 7.38494 10.7918 7.38467 11.073L7.38463 11.135V14.0888L7.38467 14.1507C7.38494 14.4319 7.38517 14.6742 7.33363 14.889C7.17156 15.564 6.6445 16.0911 5.96947 16.2532C5.75476 16.3046 5.51237 16.3045 5.23121 16.3041H5.16926H2.21544H2.1535C1.87233 16.3045 1.62996 16.3046 1.41524 16.2532C0.740204 16.0911 0.213144 15.564 0.05109 14.889C-0.000461586 14.6742 -0.000230235 14.4319 3.80707e-05 14.1507L7.50712e-05 14.0888V11.135L3.80707e-05 11.073C-0.000230235 10.7918 -0.000461586 10.5495 0.05109 10.3348C0.213144 9.65972 0.740204 9.13266 1.41524 8.9706C1.62996 8.91905 1.87233 8.91928 2.1535 8.91955ZM2.21544 10.1503C1.83664 10.1503 1.75553 10.1546 1.70256 10.1674C1.47754 10.2214 1.30186 10.3971 1.24784 10.6221C1.23512 10.675 1.23083 10.7562 1.23083 11.135V14.0888C1.23083 14.4676 1.23512 14.5487 1.24784 14.6016C1.30186 14.8266 1.47754 15.0024 1.70256 15.0564C1.75553 15.0691 1.83664 15.0734 2.21544 15.0734H5.16926C5.54808 15.0734 5.62919 15.0691 5.68214 15.0564C5.90716 15.0024 6.08284 14.8266 6.13687 14.6016C6.14959 14.5487 6.15387 14.4676 6.15387 14.0888V11.135C6.15387 10.7562 6.14959 10.675 6.13687 10.6221C6.08284 10.3971 5.90716 10.2214 5.68214 10.1674C5.62919 10.1546 5.54808 10.1503 5.16926 10.1503H2.21544ZM10.8308 8.91959L10.7688 8.91955C10.4876 8.91928 10.2453 8.91905 10.0306 8.9706C9.35552 9.13266 8.82846 9.65972 8.6664 10.3348C8.61485 10.5495 8.61508 10.7918 8.61535 11.073L8.61539 11.135V14.0888L8.61535 14.1507C8.61508 14.4319 8.61485 14.6742 8.6664 14.889C8.82846 15.564 9.35552 16.0911 10.0306 16.2532C10.2453 16.3046 10.4876 16.3045 10.7688 16.3041H10.8308H13.7846H13.8465C14.1277 16.3045 14.37 16.3046 14.5848 16.2532C15.2598 16.0911 15.7869 15.564 15.949 14.889C16.0004 14.6742 16.0003 14.4319 15.9999 14.1507V14.0888V11.135V11.073C16.0003 10.7918 16.0004 10.5495 15.949 10.3348C15.7869 9.65972 15.2598 9.13266 14.5848 8.9706C14.37 8.91905 14.1277 8.91928 13.8465 8.91955L13.7846 8.91959H10.8308ZM10.3179 10.1674C10.3708 10.1546 10.452 10.1503 10.8308 10.1503H13.7846C14.1634 10.1503 14.2445 10.1546 14.2974 10.1674C14.5224 10.2214 14.6982 10.3971 14.7522 10.6221C14.7649 10.675 14.7692 10.7562 14.7692 11.135V14.0888C14.7692 14.4676 14.7649 14.5487 14.7522 14.6016C14.6982 14.8266 14.5224 15.0024 14.2974 15.0564C14.2445 15.0691 14.1634 15.0734 13.7846 15.0734H10.8308C10.452 15.0734 10.3708 15.0691 10.3179 15.0564C10.0929 15.0024 9.91717 14.8266 9.86316 14.6016C9.85043 14.5487 9.84615 14.4676 9.84615 14.0888V11.135C9.84615 10.7562 9.85043 10.675 9.86316 10.6221C9.91717 10.3971 10.0929 10.2214 10.3179 10.1674Z" fill="#1E7CB4"/>
</svg>
