<svg width="16" height="16" viewBox="0 0 16 16" fill="none" xmlns="http://www.w3.org/2000/svg">
<path d="M7.8 15.8042C7.63 15.8042 7.48752 15.7439 7.3726 15.6234C7.25752 15.5029 7.2 15.3537 7.2 15.1754C7.2 14.9974 7.25752 14.8493 7.3726 14.7313C7.48752 14.6132 7.63 14.5542 7.8 14.5542H14V8.22087C14 6.50295 13.4179 5.04574 12.2536 3.8492C11.0893 2.65253 9.67148 2.0542 8 2.0542C6.32852 2.0542 4.91068 2.65253 3.7464 3.8492C2.58212 5.04574 2 6.50295 2 8.22087V12.8875C2 13.0056 1.96167 13.1045 1.885 13.1844C1.80833 13.2643 1.71333 13.3042 1.6 13.3042C1.16 13.3042 0.783332 13.141 0.47 12.8146C0.156668 12.4882 0 12.0959 0 11.6375V9.97087C0 9.6792 0.07 9.40491 0.21 9.14795C0.35 8.89099 0.546668 8.68616 0.8 8.53337L0.86 7.4292C0.966668 6.48474 1.23 5.60974 1.65 4.8042C2.07 3.99866 2.59668 3.29724 3.23 2.70003C3.86332 2.10281 4.59 1.63753 5.41 1.3042C6.23 0.970866 7.09332 0.804199 8 0.804199C8.90668 0.804199 9.76668 0.970866 10.58 1.3042C11.3933 1.63753 12.12 2.09934 12.76 2.68962C13.4 3.27991 13.9267 3.97782 14.34 4.78337C14.7533 5.58891 15.02 6.46391 15.14 7.40837L15.2 8.4917C15.4533 8.6167 15.65 8.8042 15.79 9.0542C15.93 9.3042 16 9.56807 16 9.84587V11.7625C16 12.0403 15.93 12.3042 15.79 12.5542C15.65 12.8042 15.4533 12.9917 15.2 13.1167V14.5542C15.2 14.8979 15.0825 15.1922 14.8476 15.4369C14.6125 15.6818 14.33 15.8042 14 15.8042H7.8ZM5.5964 9.76253C5.42548 9.76253 5.28332 9.70224 5.17 9.5817C5.05668 9.46128 5 9.31199 5 9.13378C5 8.95574 5.05788 8.80766 5.1736 8.68962C5.2892 8.57157 5.43252 8.51253 5.6036 8.51253C5.77452 8.51253 5.91668 8.57282 6.03 8.69337C6.14332 8.81378 6.2 8.96307 6.2 9.14128C6.2 9.31932 6.14212 9.46741 6.0264 9.58545C5.9108 9.70349 5.76748 9.76253 5.5964 9.76253ZM10.3964 9.76253C10.2255 9.76253 10.0833 9.70224 9.97 9.5817C9.85668 9.46128 9.8 9.31199 9.8 9.13378C9.8 8.95574 9.85788 8.80766 9.9736 8.68962C10.0892 8.57157 10.2325 8.51253 10.4036 8.51253C10.5745 8.51253 10.7167 8.57282 10.83 8.69337C10.9433 8.81378 11 8.96307 11 9.14128C11 9.31932 10.9421 9.46741 10.8264 9.58545C10.7108 9.70349 10.5675 9.76253 10.3964 9.76253ZM3.22 8.6792C3.12668 7.20699 3.55332 5.94307 4.5 4.88753C5.44668 3.83199 6.62668 3.3042 8.04 3.3042C9.2 3.3042 10.2067 3.70349 11.06 4.50212C11.9133 5.30074 12.4333 6.29724 12.62 7.4917C11.4333 7.47782 10.35 7.13057 9.37 6.45003C8.39 5.76949 7.63148 4.87366 7.0944 3.76253C6.8848 4.87366 6.43668 5.86324 5.75 6.73128C5.06332 7.59932 4.22 8.24866 3.22 8.6792Z" fill="#1E7CB4"/>
</svg>
