<svg width="20" height="16" viewBox="0 0 20 16" fill="none" xmlns="http://www.w3.org/2000/svg">
<path d="M0 14.5V1.5C0 1.0875 0.146915 0.734335 0.44075 0.4405C0.734415 0.146835 1.0875 0 1.5 0H18.5C18.9125 0 19.2656 0.146835 19.5595 0.4405C19.8531 0.734335 20 1.0875 20 1.5V14.5C20 14.9125 19.8531 15.2656 19.5595 15.5592C19.2656 15.8531 18.9125 16 18.5 16H1.5C1.0875 16 0.734415 15.8531 0.44075 15.5592C0.146915 15.2656 0 14.9125 0 14.5ZM18.5 7.25V1.5H1.5V7.25H18.5ZM7.575 14.5H18.5V8.75H7.575V14.5ZM1.5 14.5H6.075V8.75H1.5V14.5Z" fill="#8DA5B5"/>
</svg>
