<svg width="20" height="17" viewBox="0 0 20 17" fill="none" xmlns="http://www.w3.org/2000/svg">
<path d="M19.25 9.08242H17C16.7875 9.08242 16.6094 9.00735 16.4657 8.85726C16.3219 8.70732 16.25 8.52139 16.25 8.29954C16.25 8.07781 16.3219 7.89347 16.4657 7.7465C16.6094 7.59947 16.7875 7.526 17 7.526H19.25C19.4625 7.526 19.6406 7.60102 19.7845 7.75116C19.9282 7.9011 20 8.08699 20 8.30888C20 8.53057 19.9282 8.7149 19.7845 8.86193C19.6406 9.00891 19.4625 9.08242 19.25 9.08242ZM14.925 13.6479C15.0583 13.475 15.2236 13.3712 15.4207 13.3366C15.6177 13.302 15.8025 13.3539 15.975 13.4923L17.8 14.8931C17.9667 15.0314 18.0667 15.2028 18.1 15.4075C18.1334 15.6119 18.0834 15.8036 17.95 15.9826C17.8167 16.1555 17.6514 16.2592 17.4543 16.2938C17.2572 16.3284 17.0725 16.2765 16.9 16.1382L15.075 14.7374C14.9084 14.5991 14.8083 14.4276 14.775 14.223C14.7416 14.0186 14.7916 13.8269 14.925 13.6479ZM17.8 1.71537L16.05 3.0902C15.8775 3.22852 15.6927 3.2804 15.4958 3.24585C15.2986 3.21124 15.1334 3.10748 15 2.93456C14.8666 2.76159 14.8167 2.5714 14.85 2.36387C14.8834 2.15635 14.9833 1.98338 15.15 1.84507L16.9 0.470218C17.0725 0.331868 17.2572 0.279987 17.4543 0.314576C17.6514 0.34916 17.8167 0.452921 17.95 0.625861C18.0834 0.798794 18.1334 0.989025 18.1 1.19656C18.0667 1.40408 17.9667 1.577 17.8 1.71537ZM3.25 11.4171H1.5C1.0875 11.4171 0.734415 11.2646 0.44075 10.9597C0.146915 10.655 0 10.2886 0 9.86063V6.74779C0 6.31978 0.146915 5.95329 0.44075 5.64844C0.734415 5.34369 1.0875 5.19137 1.5 5.19137H6L9.875 2.77892C10.125 2.62328 10.375 2.62276 10.625 2.77736C10.875 2.93176 11 3.15713 11 3.45337V13.1551C11 13.4513 10.875 13.6766 10.625 13.8311C10.375 13.9857 10.125 13.9851 9.875 13.8295L6 11.4171H4.75V14.7893C4.75 15.0098 4.67765 15.1945 4.533 15.3436C4.3885 15.4929 4.20935 15.5675 3.9955 15.5675C3.78185 15.5675 3.60415 15.4929 3.4625 15.3436C3.32085 15.1945 3.25 15.0098 3.25 14.7893V11.4171ZM9.5 11.7802V4.82821L6.4 6.74779H1.5V9.86063H6.4L9.5 11.7802ZM12 11.7802V4.82821C12.45 5.24325 12.8125 5.74909 13.0875 6.34572C13.3625 6.94234 13.5 7.59516 13.5 8.30421C13.5 9.01321 13.3625 9.66608 13.0875 10.2627C12.8125 10.8593 12.45 11.3652 12 11.7802Z" fill="#1E7CB4"/>
</svg>
