<svg width="48" height="48" viewBox="0 0 48 48" fill="none" xmlns="http://www.w3.org/2000/svg">
<circle cx="24" cy="24" r="24" fill="#E9F2F8"/>
<path d="M31.5962 12.4805V12.4814L31.5991 12.4844C32.8134 13.6922 33.7766 15.1286 34.4321 16.7109C35.0467 18.1946 35.3791 19.7792 35.4146 21.3828L35.4175 21.7041C35.4172 21.8589 35.356 22.0076 35.2466 22.1172C35.1371 22.2267 34.9884 22.2878 34.8335 22.2881C34.6789 22.2878 34.5307 22.2274 34.4214 22.1182C34.3392 22.036 34.2837 21.9317 34.2612 21.8193L34.2505 21.7051C34.2546 20.1451 33.9489 18.5995 33.3521 17.1582C32.755 15.7165 31.8773 14.4081 30.771 13.3076L30.77 13.3057C30.7156 13.2517 30.6717 13.1879 30.6421 13.1172C30.6124 13.0462 30.5974 12.9695 30.5972 12.8926C30.597 12.8159 30.6119 12.7399 30.6411 12.6689C30.6704 12.5979 30.7137 12.5329 30.7681 12.4785C30.8225 12.4241 30.8874 12.3809 30.9585 12.3516C31.0294 12.3224 31.1054 12.3074 31.1821 12.3076C31.259 12.3078 31.3358 12.3228 31.4067 12.3525C31.4776 12.3823 31.5422 12.4258 31.5962 12.4805Z" stroke="#8DA5B5"/>
<path d="M12.582 21.7042C12.5774 19.9913 12.9129 18.2945 13.5684 16.712C14.2237 15.1298 15.1863 13.6932 16.4004 12.4854C16.51 12.377 16.6583 12.316 16.8125 12.3165C16.9665 12.317 17.1137 12.3786 17.2227 12.4874C17.3317 12.5964 17.3941 12.7443 17.3945 12.8985C17.3949 13.0526 17.333 13.201 17.2246 13.3106C16.12 14.4104 15.2439 15.7181 14.6475 17.1583C14.125 18.4197 13.8264 19.7612 13.7627 21.1221L13.75 21.7051C13.7499 21.86 13.6885 22.0087 13.5791 22.1182C13.4696 22.2277 13.3208 22.2889 13.166 22.2891C13.0112 22.289 12.8624 22.2277 12.7529 22.1182C12.6435 22.0087 12.5822 21.86 12.582 21.7051V21.7042Z" stroke="#8DA5B5"/>
<path d="M23.9995 11.75C24.088 11.75 24.1732 11.7851 24.2358 11.8477C24.2985 11.9103 24.3335 11.9954 24.3335 12.084V13.9033L24.9761 13.9961C26.6007 14.2316 28.0862 15.0439 29.1616 16.2842C30.2369 17.5243 30.8303 19.1096 30.8335 20.751V23.7686C30.8326 24.9352 31.0865 26.0883 31.5776 27.1465C32.0688 28.2047 32.7856 29.1431 33.6772 29.8955V29.8945C33.8566 30.0462 33.9852 30.2495 34.0454 30.4766C34.1057 30.7037 34.0939 30.9443 34.0132 31.165C33.9325 31.3855 33.7866 31.5764 33.5942 31.7109C33.4017 31.8456 33.172 31.9179 32.937 31.918H15.062C14.828 31.9179 14.5998 31.8456 14.4077 31.7119C14.2156 31.5781 14.069 31.3886 13.9878 31.1689C13.9066 30.9494 13.8948 30.71 13.9536 30.4834C14.012 30.2591 14.137 30.058 14.312 29.9062C15.2062 29.1535 15.9254 28.2141 16.4185 27.1543C16.9115 26.0945 17.1658 24.9394 17.1655 23.7705V20.751C17.1684 19.1095 17.762 17.5234 18.8374 16.2832C19.9128 15.043 21.3993 14.2314 23.0239 13.9961L23.6655 13.9033V12.084C23.6655 11.9954 23.7015 11.9103 23.7642 11.8477C23.8267 11.7853 23.9112 11.7501 23.9995 11.75Z" stroke="#8DA5B5" stroke-width="1.5"/>
<path d="M27.3096 34.25C27.0866 34.8108 26.7237 35.3093 26.251 35.6953C25.6154 36.2143 24.8206 36.4978 24 36.499C23.1791 36.4977 22.384 36.2144 21.748 35.6953C21.2753 35.3094 20.9128 34.8107 20.6895 34.25H27.3096Z" stroke="#8DA5B5"/>
</svg>
