<svg width="26" height="26" viewBox="0 0 26 26" fill="none" xmlns="http://www.w3.org/2000/svg">
<path d="M3.66667 25.0005H22.3333C23.0406 25.0005 23.7189 24.7195 24.219 24.2194C24.719 23.7193 25 23.0411 25 22.3338V3.66716C25 2.95991 24.719 2.28163 24.219 1.78154C23.7189 1.28144 23.0406 1.00049 22.3333 1.00049H3.66667C2.95942 1.00049 2.28115 1.28144 1.78105 1.78154C1.28095 2.28163 0.999999 2.95991 0.999999 3.66716V22.3338C0.999999 23.0411 1.28095 23.7193 1.78105 24.2194C2.28115 24.7195 2.95942 25.0005 3.66667 25.0005Z" stroke="#1E7CB4" stroke-width="1.5" stroke-linecap="round" stroke-linejoin="round"/>
<path d="M19.3332 10.3338L21.6665 13.0005L19.3332 15.6672M16.3332 25.0005V1.00049" stroke="#1E7CB4" stroke-width="1.5" stroke-linecap="round" stroke-linejoin="round"/>
</svg>
