<svg width="16" height="18" viewBox="0 0 16 18" fill="none" xmlns="http://www.w3.org/2000/svg">
<path d="M1.2 18C0.87 18 0.587532 17.8781 0.3526 17.6343C0.117532 17.3903 0 17.0971 0 16.7547C0 16.4122 0.119468 16.1216 0.3584 15.883C0.597332 15.6443 0.884532 15.525 1.22 15.525H14.8C15.13 15.525 15.4125 15.6456 15.6476 15.8866C15.8825 16.1276 16 16.4174 16 16.756C16 17.0944 15.8805 17.3864 15.6416 17.6318C15.4027 17.8773 15.1155 18 14.78 18H1.2ZM2.8 11.8432H3.68L11.5 3.84545L11.06 3.39545L10.62 2.94545L2.8 10.9432V11.8432ZM1.6 12.4556V10.7184C1.6 10.6364 1.61333 10.5579 1.64 10.483C1.66667 10.408 1.71333 10.3364 1.78 10.2682L11.48 0.347727C11.6 0.225 11.7333 0.136362 11.88 0.0818181C12.0267 0.027274 12.1733 0 12.32 0C12.4667 0 12.6167 0.027274 12.77 0.0818181C12.9233 0.136362 13.0533 0.225 13.16 0.347727L14.04 1.24773C14.16 1.35682 14.25 1.48977 14.31 1.64659C14.37 1.80341 14.4 1.95921 14.4 2.11398C14.4 2.2592 14.3713 2.40655 14.314 2.556C14.2565 2.7056 14.1652 2.84224 14.04 2.96591L4.34 12.8864C4.27332 12.9546 4.2052 13.0023 4.1356 13.0295C4.06612 13.0568 3.99428 13.0705 3.92 13.0705H2.2066C2.03473 13.0705 1.89067 13.0115 1.7744 12.8937C1.65813 12.7758 1.6 12.6297 1.6 12.4556ZM11.5 3.84545L11.06 3.39545L10.62 2.94545L11.5 3.84545Z" fill="#007AFF"/>
</svg>
