<svg width="16" height="17" viewBox="0 0 16 17" fill="none" xmlns="http://www.w3.org/2000/svg">
<circle cx="8" cy="8.5" r="7.5" stroke="#1E7CB4"/>
<path d="M11.4286 9.07143H8.57143V11.9286C8.57143 12.2429 8.31429 12.5 8 12.5C7.68571 12.5 7.42857 12.2429 7.42857 11.9286V9.07143H4.57143C4.25714 9.07143 4 8.81429 4 8.5C4 8.18571 4.25714 7.92857 4.57143 7.92857H7.42857V5.07143C7.42857 4.75714 7.68571 4.5 8 4.5C8.31429 4.5 8.57143 4.75714 8.57143 5.07143V7.92857H11.4286C11.7429 7.92857 12 8.18571 12 8.5C12 8.81429 11.7429 9.07143 11.4286 9.07143Z" fill="#1E7CB4"/>
</svg>
