<svg width="16" height="16" viewBox="0 0 16 16" fill="none" xmlns="http://www.w3.org/2000/svg">
<path d="M8.0636 12C8.23452 12 8.37668 11.9425 8.49 11.8274C8.60332 11.7125 8.66 11.57 8.66 11.4V7.8C8.66 7.63 8.60212 7.48748 8.4864 7.3724C8.3708 7.25748 8.22748 7.2 8.0564 7.2C7.88548 7.2 7.74332 7.25748 7.63 7.3724C7.51668 7.48748 7.46 7.63 7.46 7.8V11.4C7.46 11.57 7.51788 11.7125 7.6336 11.8274C7.7492 11.9425 7.89252 12 8.0636 12ZM7.9996 5.72C8.18652 5.72 8.34332 5.65868 8.47 5.536C8.59668 5.41332 8.66 5.26132 8.66 5.08C8.66 4.88732 8.5968 4.72588 8.4704 4.5956C8.344 4.4652 8.18732 4.4 8.0004 4.4C7.81348 4.4 7.65668 4.4652 7.53 4.5956C7.40332 4.72588 7.34 4.88732 7.34 5.08C7.34 5.26132 7.4032 5.41332 7.5296 5.536C7.656 5.65868 7.81268 5.72 7.9996 5.72ZM8.0054 16C6.9022 16 5.86552 15.79 4.8954 15.37C3.92512 14.95 3.07668 14.3767 2.35 13.65C1.62333 12.9233 1.05 12.0744 0.63 11.1032C0.21 10.132 0 9.09428 0 7.99C0 6.88572 0.21 5.848 0.63 4.8768C1.05 3.9056 1.62333 3.06 2.35 2.34C3.07668 1.62 3.9256 1.05 4.8968 0.63C5.868 0.21 6.90572 0 8.01 0C9.11428 0 10.152 0.21 11.1232 0.63C12.0944 1.05 12.94 1.62 13.66 2.34C14.38 3.06 14.95 3.90668 15.37 4.88C15.79 5.85332 16 6.89152 16 7.9946C16 9.0978 15.79 10.1345 15.37 11.1046C14.95 12.0749 14.38 12.9221 13.66 13.6464C12.94 14.3705 12.0933 14.9439 11.12 15.3664C10.1467 15.7888 9.10848 16 8.0054 16ZM8.01 14.8C9.89668 14.8 11.5 14.1367 12.82 12.81C14.14 11.4833 14.8 9.87668 14.8 7.99C14.8 6.10332 14.1413 4.5 12.8238 3.18C11.5063 1.86 9.8984 1.2 8 1.2C6.12 1.2 4.51668 1.85873 3.19 3.1762C1.86333 4.49368 1.2 6.1016 1.2 8C1.2 9.88 1.86333 11.4833 3.19 12.81C4.51668 14.1367 6.12332 14.8 8.01 14.8Z" fill="#0D6EFD"/>
</svg>
