<svg width="16" height="15" viewBox="0 0 16 15" fill="none" xmlns="http://www.w3.org/2000/svg">
<path d="M1.2 13.1375H4.94V6.13753H1.2V13.1375ZM6.14 13.1375H9.86V1.47087H6.14V13.1375ZM11.06 13.1375H14.8V7.69309H11.06V13.1375ZM0 13.1375V6.13753C0 5.8167 0.117532 5.54203 0.3526 5.31348C0.587532 5.08508 0.87 4.97087 1.2 4.97087H4.94V1.47087C4.94 1.15003 5.05752 0.875349 5.2926 0.64681C5.52752 0.418404 5.81 0.304199 6.14 0.304199H9.86C10.19 0.304199 10.4725 0.418404 10.7076 0.64681C10.9425 0.875349 11.06 1.15003 11.06 1.47087V6.52642H14.8C15.13 6.52642 15.4125 6.64064 15.6476 6.86903C15.8825 7.09758 16 7.37225 16 7.69309V13.1375C16 13.4584 15.8825 13.733 15.6476 13.9614C15.4125 14.1899 15.13 14.3042 14.8 14.3042H1.2C0.87 14.3042 0.587532 14.1899 0.3526 13.9614C0.117532 13.733 0 13.4584 0 13.1375Z" fill="#1E7CB4"/>
</svg>
