<svg width="16" height="19" viewBox="0 0 16 19" fill="none" xmlns="http://www.w3.org/2000/svg">
<path d="M2.33333 18.3042C1.68519 18.3042 1.1343 18.0745 0.680667 17.615C0.226889 17.1557 0 16.5979 0 15.9417V14.2542C0 13.8829 0.130591 13.5651 0.391778 13.3006C0.652813 13.0364 0.966667 12.9042 1.33333 12.9042H2.66667V1.6542C2.66667 1.28295 2.79724 0.965101 3.05844 0.700649C3.31947 0.436351 3.63333 0.304199 4 0.304199H14.6667C15.0333 0.304199 15.3472 0.436351 15.6084 0.700649C15.8695 0.965101 16 1.28295 16 1.6542V15.9417C16 16.5979 15.7732 17.1557 15.3196 17.615C14.8658 18.0745 14.3148 18.3042 13.6667 18.3042H2.33333ZM13.6647 16.9542C13.9475 16.9542 14.1852 16.8571 14.3778 16.663C14.5704 16.469 14.6667 16.2285 14.6667 15.9417V1.6542H4V12.9042H11.3333C11.7 12.9042 12.0139 13.0364 12.2751 13.3006C12.5361 13.5651 12.6667 13.8829 12.6667 14.2542V15.9417C12.6667 16.2285 12.7623 16.469 12.9536 16.663C13.1448 16.8571 13.3819 16.9542 13.6647 16.9542ZM6 5.7042C5.81111 5.7042 5.6528 5.63908 5.52511 5.5089C5.39724 5.37885 5.33333 5.21761 5.33333 5.02515C5.33333 4.83286 5.39724 4.67293 5.52511 4.54545C5.6528 4.41796 5.81111 4.3542 6 4.3542H12.6667C12.8556 4.3542 13.0139 4.41931 13.1418 4.5495C13.2695 4.67955 13.3333 4.84078 13.3333 5.03325C13.3333 5.22553 13.2695 5.38546 13.1418 5.51295C13.0139 5.64043 12.8556 5.7042 12.6667 5.7042H6ZM6 8.4042C5.81111 8.4042 5.6528 8.33908 5.52511 8.2089C5.39724 8.07885 5.33333 7.91761 5.33333 7.72515C5.33333 7.53286 5.39724 7.37293 5.52511 7.24545C5.6528 7.11796 5.81111 7.0542 6 7.0542H12.6667C12.8556 7.0542 13.0139 7.11931 13.1418 7.2495C13.2695 7.37955 13.3333 7.54078 13.3333 7.73325C13.3333 7.92553 13.2695 8.08546 13.1418 8.21295C13.0139 8.34043 12.8556 8.4042 12.6667 8.4042H6ZM2.31111 16.9542H11.3333V14.2542H1.33333V15.9417C1.33333 16.2285 1.42963 16.469 1.62222 16.663C1.8148 16.8571 2.04444 16.9542 2.31111 16.9542ZM2.31111 16.9542H1.33333H11.3333H2.31111Z" fill="#1E7CB4"/>
</svg>
