<svg width="17" height="18" viewBox="0 0 17 18" fill="none" xmlns="http://www.w3.org/2000/svg">
<path fill-rule="evenodd" clip-rule="evenodd" d="M4.41137 0.11084C4.17562 0.11084 3.94952 0.204492 3.78282 0.371195C3.61611 0.537898 3.52246 0.763995 3.52246 0.999749V11.6667C3.52246 11.9024 3.61611 12.1285 3.78282 12.2952C3.94952 12.4619 4.17562 12.5556 4.41137 12.5556C4.64712 12.5556 4.87322 12.4619 5.03992 12.2952C5.20663 12.1285 5.30028 11.9024 5.30028 11.6667V0.999749C5.30028 0.763995 5.20663 0.537898 5.03992 0.371195C4.87322 0.204492 4.64712 0.11084 4.41137 0.11084Z" fill="#505050"/>
<path fill-rule="evenodd" clip-rule="evenodd" d="M5.03986 0.3711C4.87317 0.204456 4.64711 0.11084 4.4114 0.11084C4.1757 0.11084 3.94964 0.204456 3.78295 0.3711L0.671764 3.48228C0.586864 3.56428 0.519145 3.66237 0.472558 3.77082C0.425972 3.87927 0.40145 3.99591 0.400424 4.11394C0.399399 4.23197 0.421889 4.34902 0.466585 4.45826C0.51128 4.56751 0.577284 4.66675 0.660746 4.75022C0.744208 4.83368 0.843456 4.89968 0.9527 4.94438C1.06194 4.98907 1.179 5.01156 1.29702 5.01054C1.41505 5.00951 1.53169 4.98499 1.64015 4.9384C1.7486 4.89182 1.84668 4.8241 1.92868 4.7392L4.4114 2.25648L6.89413 4.7392C6.97613 4.8241 7.07421 4.89182 7.18266 4.9384C7.29111 4.98499 7.40776 5.00951 7.52578 5.01054C7.64381 5.01156 7.76086 4.98907 7.87011 4.94438C7.97935 4.89968 8.0786 4.83368 8.16206 4.75022C8.24552 4.66675 8.31153 4.56751 8.35622 4.45826C8.40092 4.34902 8.42341 4.23197 8.42238 4.11394C8.42136 3.99591 8.39684 3.87927 8.35025 3.77082C8.30366 3.66237 8.23594 3.56428 8.15104 3.48228L5.03986 0.3711Z" fill="#505050"/>
<path fill-rule="evenodd" clip-rule="evenodd" d="M12.4123 17.8891C12.6481 17.8891 12.8742 17.7954 13.0409 17.6287C13.2076 17.462 13.3013 17.2359 13.3013 17.0002V6.33324C13.3013 6.09749 13.2076 5.87139 13.0409 5.70469C12.8742 5.53799 12.6481 5.44434 12.4123 5.44434C12.1766 5.44434 11.9505 5.53799 11.7838 5.70469C11.6171 5.87139 11.5234 6.09749 11.5234 6.33324V17.0002C11.5234 17.2359 11.6171 17.462 11.7838 17.6287C11.9505 17.7954 12.1766 17.8891 12.4123 17.8891Z" fill="#8DA5B5"/>
<path fill-rule="evenodd" clip-rule="evenodd" d="M11.7826 17.6284C11.9493 17.795 12.1753 17.8886 12.411 17.8886C12.6467 17.8886 12.8728 17.795 13.0395 17.6284L16.1507 14.5172C16.3126 14.3495 16.4022 14.125 16.4002 13.8919C16.3982 13.6589 16.3047 13.4359 16.1399 13.2711C15.975 13.1063 15.7521 13.0128 15.519 13.0108C15.286 13.0088 15.0614 13.0983 14.8938 13.2603L12.411 15.743L9.92832 13.2603C9.76067 13.0983 9.53613 13.0088 9.30306 13.0108C9.06999 13.0128 8.84704 13.1063 8.68223 13.2711C8.51742 13.4359 8.42393 13.6589 8.42191 13.8919C8.41988 14.125 8.50948 14.3495 8.6714 14.5172L11.7826 17.6284Z" fill="#8DA5B5"/>
</svg>
