<svg width="14" height="13" viewBox="0 0 14 13" fill="none" xmlns="http://www.w3.org/2000/svg">
<path d="M4.95129 4.12501L6.51037 1.09596C6.55576 1.00829 6.62555 0.934563 6.71194 0.883029C6.79833 0.831496 6.89789 0.804199 6.99946 0.804199C7.10103 0.804199 7.20059 0.831496 7.28698 0.883029C7.37336 0.934563 7.44316 1.00829 7.48855 1.09596L9.04763 4.12501L12.5331 4.61364C12.6336 4.62709 12.7282 4.66754 12.806 4.73037C12.8839 4.79319 12.9418 4.87587 12.9733 4.96896C13.0048 5.06205 13.0085 5.1618 12.984 5.25683C12.9596 5.35186 12.9079 5.43833 12.8349 5.50638L10.3133 7.8627L10.9086 11.1917C10.9848 11.6189 10.5167 11.9443 10.1164 11.7428L6.99946 10.1704L3.8819 11.7428C3.48223 11.9449 3.01415 11.6189 3.09036 11.1911L3.68567 7.86212L1.16401 5.5058C1.09139 5.43771 1.04003 5.35132 1.01577 5.25646C0.991502 5.1616 0.995307 5.06208 1.02675 4.9692C1.0582 4.87633 1.11602 4.79383 1.19364 4.73107C1.27127 4.66832 1.36558 4.62784 1.46587 4.61422L4.95129 4.12501Z" stroke="#F29500" stroke-linecap="round" stroke-linejoin="round"/>
</svg>
