<svg width="17" height="17" viewBox="0 0 17 17" fill="none" xmlns="http://www.w3.org/2000/svg">
<path d="M1.72266 16.3504C1.32266 16.3504 0.972656 16.2004 0.672656 15.9004C0.372656 15.6004 0.222656 15.2504 0.222656 14.8504V12.0254C0.222656 11.8129 0.294991 11.6347 0.439656 11.4909C0.584156 11.3472 0.763321 11.2754 0.977156 11.2754C1.19082 11.2754 1.36851 11.3472 1.51016 11.4909C1.65181 11.6347 1.72266 11.8129 1.72266 12.0254V14.8504H14.7227V12.0254C14.7227 11.8129 14.795 11.6347 14.9397 11.4909C15.0842 11.3472 15.2633 11.2754 15.4772 11.2754C15.6908 11.2754 15.8685 11.3472 16.0102 11.4909C16.1518 11.6347 16.2227 11.8129 16.2227 12.0254V14.8504C16.2227 15.2504 16.0727 15.6004 15.7727 15.9004C15.4727 16.2004 15.1227 16.3504 14.7227 16.3504H1.72266ZM7.47266 3.25039L4.99766 5.72539C4.85101 5.87539 4.67681 5.94624 4.47516 5.93789C4.27351 5.92954 4.09441 5.85039 3.93791 5.70039C3.79441 5.55039 3.72266 5.37124 3.72266 5.16289C3.72266 4.95454 3.79766 4.77539 3.94766 4.62539L7.69766 0.875391C7.78101 0.792056 7.86541 0.733721 7.95091 0.700391C8.03656 0.667056 8.12826 0.650391 8.22591 0.650391C8.32376 0.650391 8.41431 0.667056 8.49766 0.700391C8.58101 0.733721 8.66431 0.792056 8.74766 0.875391L12.5227 4.65039C12.6727 4.80039 12.7477 4.97539 12.7477 5.17539C12.7477 5.37539 12.6759 5.55039 12.5324 5.70039C12.3759 5.85039 12.1935 5.92539 11.9852 5.92539C11.7768 5.92539 11.5977 5.85039 11.4477 5.70039L8.97266 3.25039V11.7754C8.97266 11.9879 8.90031 12.166 8.75566 12.3096C8.61116 12.4535 8.43201 12.5254 8.21816 12.5254C8.00451 12.5254 7.82681 12.4535 7.68516 12.3096C7.54351 12.166 7.47266 11.9879 7.47266 11.7754V3.25039Z" fill="#1E7CB4"/>
</svg>
