<svg width="16" height="14" viewBox="0 0 16 14" fill="none" xmlns="http://www.w3.org/2000/svg">
<path d="M0.585029 14.0005C0.470365 14.0005 0.370671 13.9741 0.285946 13.9213C0.20122 13.8686 0.135288 13.7991 0.0881494 13.7128C0.0350214 13.6284 0.00584689 13.537 0.000622002 13.4386C-0.00472901 13.3401 0.0244455 13.2398 0.0881494 13.1375L7.50311 0.28816C7.56683 0.185875 7.6401 0.112362 7.72289 0.0676116C7.80571 0.0228615 7.89809 0.000488281 7.99999 0.000488281C8.10193 0.000488281 8.19431 0.0228615 8.2771 0.0676116C8.35992 0.112362 8.43319 0.185875 8.49687 0.28816L15.9118 13.1375C15.9756 13.2398 16.0047 13.3401 15.9994 13.4386C15.9942 13.537 15.965 13.6284 15.9118 13.7128C15.8647 13.7991 15.7988 13.8686 15.7141 13.9213C15.6294 13.9741 15.5296 14.0005 15.415 14.0005H0.585029ZM1.57879 12.8498H14.4212L7.99999 1.72652L1.57879 12.8498ZM8.07987 11.7567C8.24323 11.7567 8.37903 11.7012 8.48732 11.5902C8.59564 11.4793 8.64976 11.3419 8.64976 11.1779C8.64976 11.014 8.59449 10.8776 8.48388 10.769C8.37342 10.6603 8.23647 10.606 8.073 10.606C7.90967 10.606 7.77387 10.6615 7.66555 10.7724C7.55727 10.8833 7.50311 11.0207 7.50311 11.1848C7.50311 11.3487 7.55842 11.485 7.66899 11.5936C7.77945 11.7023 7.91644 11.7567 8.07987 11.7567ZM8.07987 9.62789C8.24323 9.62789 8.37903 9.57273 8.48732 9.46238C8.59564 9.35218 8.64976 9.21556 8.64976 9.05254V5.90734C8.64976 5.74432 8.59449 5.60766 8.48388 5.49731C8.37342 5.38711 8.23647 5.332 8.073 5.332C7.90967 5.332 7.77387 5.38711 7.66555 5.49731C7.55727 5.60766 7.50311 5.74432 7.50311 5.90734V9.05254C7.50311 9.21556 7.55842 9.35218 7.66899 9.46238C7.77945 9.57273 7.91644 9.62789 8.07987 9.62789Z" fill="#505050"/>
</svg>
